<svg width="500" height="193" viewBox="0 0 500 193" fill="none" xmlns="http://www.w3.org/2000/svg">
<path d="M47.9138 119.77C47.9138 130.665 45.809 139.889 41.5996 147.441C37.5139 155.117 31.8806 160.998 24.6997 165.084C17.5189 169.293 9.28562 171.522 0 171.769V154.312C8.66658 153.817 15.7856 150.722 21.3569 145.027C27.0521 139.455 29.8997 130.851 29.8997 119.213V9.82818H47.9138V119.77Z" fill="white"/>
<path d="M82.3141 67.2133H99.5853V144.098H82.3141V67.2133ZM81.0141 39.5422C81.0141 36.6946 82.0665 34.4041 84.1712 32.6708C86.3998 30.8137 88.814 29.8851 91.414 29.8851C94.014 29.8851 96.3663 30.8137 98.4711 32.6708C100.576 34.4041 101.628 36.6946 101.628 39.5422C101.628 42.3898 100.576 44.7421 98.4711 46.5992C96.3663 48.3325 94.014 49.1992 91.414 49.1992C88.814 49.1992 86.3998 48.3325 84.1712 46.5992C82.0665 44.7421 81.0141 42.3898 81.0141 39.5422Z" fill="white"/>
<path d="M129.649 144.098V0.171143H146.92V97.2987L186.663 65.3562L197.248 74.6418L168.834 97.6701L200.963 144.098H180.72L156.949 107.327L146.92 115.313V144.098H129.649Z" fill="white"/>
<path d="M212.918 104.913C212.918 97.2368 214.713 90.3035 218.303 84.1131C222.018 77.9227 227.094 73.0323 233.532 69.4419C239.97 65.8514 247.336 64.0562 255.632 64.0562C263.927 64.0562 271.231 65.8514 277.546 69.4419C283.86 73.0323 288.75 77.9227 292.217 84.1131C295.807 90.3035 297.603 97.2368 297.603 104.913C297.603 112.589 295.807 119.522 292.217 125.713C288.75 131.903 283.798 136.855 277.36 140.57C271.046 144.16 263.679 145.955 255.26 145.955C247.089 145.955 239.784 144.284 233.346 140.941C227.032 137.598 222.018 132.832 218.303 126.641C214.713 120.451 212.918 113.208 212.918 104.913ZM230.375 105.099C230.375 110.051 231.427 114.57 233.532 118.656C235.76 122.617 238.732 125.775 242.446 128.127C246.16 130.479 250.37 131.655 255.074 131.655C259.903 131.655 264.174 130.479 267.889 128.127C271.603 125.775 274.512 122.617 276.617 118.656C278.846 114.57 279.96 110.051 279.96 105.099C279.96 100.146 278.846 95.6892 276.617 91.7273C274.512 87.6417 271.603 84.4226 267.889 82.0703C264.174 79.5941 259.903 78.356 255.074 78.356C250.37 78.356 246.098 79.5941 242.26 82.0703C238.546 84.5465 235.637 87.8274 233.532 91.913C231.427 95.8749 230.375 100.27 230.375 105.099Z" fill="white"/>
<path d="M314.116 104.913C314.116 97.2368 315.912 90.3035 319.502 84.1131C323.216 77.9227 328.293 73.0323 334.731 69.4419C341.169 65.8514 348.535 64.0562 356.83 64.0562C365.125 64.0562 372.43 65.8514 378.744 69.4419C385.059 73.0323 389.949 77.9227 393.416 84.1131C397.006 90.3035 398.801 97.2368 398.801 104.913C398.801 112.589 397.006 119.522 393.416 125.713C389.949 131.903 384.997 136.855 378.559 140.57C372.244 144.16 364.878 145.955 356.459 145.955C348.288 145.955 340.983 144.284 334.545 140.941C328.231 137.598 323.216 132.832 319.502 126.641C315.912 120.451 314.116 113.208 314.116 104.913ZM331.573 105.099C331.573 110.051 332.626 114.57 334.731 118.656C336.959 122.617 339.93 125.775 343.645 128.127C347.359 130.479 351.568 131.655 356.273 131.655C361.102 131.655 365.373 130.479 369.087 128.127C372.802 125.775 375.711 122.617 377.816 118.656C380.044 114.57 381.159 110.051 381.159 105.099C381.159 100.146 380.044 95.6892 377.816 91.7273C375.711 87.6417 372.802 84.4226 369.087 82.0703C365.373 79.5941 361.102 78.356 356.273 78.356C351.568 78.356 347.297 79.5941 343.459 82.0703C339.745 84.5465 336.835 87.8274 334.731 91.913C332.626 95.8749 331.573 100.27 331.573 105.099Z" fill="white"/>
<path d="M415.315 104.913C415.315 97.2368 417.11 90.3035 420.701 84.1131C424.415 77.9227 429.491 73.0323 435.929 69.4419C442.367 65.8514 449.734 64.0562 458.029 64.0562C466.324 64.0562 473.629 65.8514 479.943 69.4419C486.257 73.0323 491.148 77.9227 494.614 84.1131C498.205 90.3035 500 97.2368 500 104.913C500 112.589 498.205 119.522 494.614 125.713C491.148 131.903 486.195 136.855 479.757 140.57C473.443 144.16 466.077 145.955 457.658 145.955C449.486 145.955 442.182 144.284 435.744 140.941C429.429 137.598 424.415 132.832 420.701 126.641C417.11 120.451 415.315 113.208 415.315 104.913ZM432.772 105.099C432.772 110.051 433.825 114.57 435.929 118.656C438.158 122.617 441.129 125.775 444.843 128.127C448.558 130.479 452.767 131.655 457.472 131.655C462.3 131.655 466.572 130.479 470.286 128.127C474 125.775 476.91 122.617 479.015 118.656C481.243 114.57 482.357 110.051 482.357 105.099C482.357 100.146 481.243 95.6892 479.015 91.7273C476.91 87.6417 474 84.4226 470.286 82.0703C466.572 79.5941 462.3 78.356 457.472 78.356C452.767 78.356 448.496 79.5941 444.658 82.0703C440.943 84.5465 438.034 87.8274 435.929 91.913C433.825 95.8749 432.772 100.27 432.772 105.099Z" fill="white"/>
<path d="M254.797 182.5C254.797 179.652 255.788 177.3 257.769 175.442C259.874 173.462 262.164 172.471 264.64 172.471C266.869 172.471 269.035 173.462 271.14 175.442C273.245 177.3 274.297 179.652 274.297 182.5C274.297 185.471 273.245 187.885 271.14 189.742C269.035 191.476 266.869 192.342 264.64 192.342C262.164 192.342 259.874 191.476 257.769 189.742C255.788 187.885 254.797 185.471 254.797 182.5Z" fill="white"/>
<path d="M274.297 182.5H449.195L459.038 192.342H264.64L274.297 182.5Z" fill="white"/>
<path d="M449.195 182.5C449.195 179.652 450.185 177.3 452.166 175.442C454.271 173.462 456.562 172.471 459.038 172.471C461.266 172.471 463.433 173.462 465.538 175.442C467.642 177.3 468.695 179.652 468.695 182.5C468.695 185.471 467.642 187.885 465.538 189.742C463.433 191.476 461.266 192.342 459.038 192.342C456.562 192.342 454.271 191.476 452.166 189.742C450.185 187.885 449.195 185.471 449.195 182.5Z" fill="white"/>
</svg>
